Simulation
nRows=27
nColumns=15
endheader
time  TH_x TH_y TH_z SC_y  SC_z  SC_x  AC_y  AC_z  AC_x  GH_y  GH_z  GH_yy  EL_x  PS_y
1.3999999999999995  0.000000  0.000000  0.000000  -31.8406040837933  10.04832059415166  19.6209596640717  71.04704526435489  15.077324598429021  -1.9383578432193673  -0.752189961034058  57.123750634832206  -29.971548601927136  24.51017804251182  120.000000
1.4279999999999995  0.000000  0.000000  0.000000  -32.545688840396565  10.33846532859478  20.61345364541421  71.49340914805529  14.914723839670732  -1.4551417489882994  -1.2476396945495705  56.999221179717836  -30.25392718208059  24.720560068637955  120.000000
1.4559999999999995  0.000000  0.000000  0.000000  -33.16629653307378  10.590758601311903  21.521949108319266  71.87624855312886  14.724081372654737  -1.0366955746121165  -1.6405437087830181  56.82461191930297  -30.53488025151925  24.895719953311428  120.000000
1.4839999999999995  0.000000  0.000000  0.000000  -33.67981069447534  10.804040757383495  22.33042321125033  72.18701037755203  14.507629573697473  -0.695381887503611  -1.926562129666732  56.60134482129572  -30.809793712504636  25.03453232709606  120.000000
1.5119999999999996  0.000000  0.000000  0.000000  -34.066085637452844  10.975846502069675  23.02334616769619  72.42070611088626  14.267996536695966  -0.44291637215435276  -2.103126052398551  56.33238251766244  -31.07471341497058  25.136535159962698  120.000000
1.5399999999999994  0.000000  0.000000  0.000000  -34.31289513753646  11.101511595857765  23.59051302610213  72.57625026095675  14.00929968303687  -0.2895869914634537  -2.169615948669961  56.02191634553421  -31.326934879604558  25.20151057565183  120.000000
1.5679999999999994  0.000000  0.000000  0.000000  -34.41047121380045  11.175063397169945  24.021043015664784  72.65733266142611  13.73670662868779  -0.24321807848816487  -2.1296171703191136  55.67759739848103  -31.564652556712687  25.229109698715206  120.000000
1.5959999999999994  0.000000  0.000000  0.000000  -34.36086281920992  11.192212086756566  24.311059810677623  72.66868514326404  13.454232368813084  -0.30910846874293824  -1.9862469774980016  55.30696943040434  -31.78881532073066  25.219168762305948  120.000000
1.6239999999999994  0.000000  0.000000  0.000000  -34.162939991465194  11.151547283848128  24.453879619761384  72.60720677819356  13.165198385941812  -0.49048304055114694  -1.7440989339428754  54.92066402066545  -32.002810433781974  25.172227476141934  120.000000
1.6519999999999995  0.000000  0.000000  0.000000  -33.829160980501264  11.056370573487392  24.45115926837309  72.4708134916786  12.87127790616526  -0.7864905747097036  -1.4060115675148248  54.526885822497015  -32.21291393746843  25.08915112943684  120.000000
1.6799999999999995  0.000000  0.000000  0.000000  -33.370307661685274  10.906004347311388  24.30249451111218  72.26066850259066  12.577492968218367  -1.192969338366543  -0.9798211424784173  54.13678932505805  -32.425154267251145  24.971181870366596  120.000000
1.7079999999999993  0.000000  0.000000  0.000000  -32.810396901735196  10.701985460609578  24.016750542655732  71.98301889944078  12.28757554054344  -1.7011061553727715  -0.47162272188378984  53.75692480480896  -32.64595509159445  24.81998335688675  120.000000
1.7359999999999993  0.000000  0.000000  0.000000  -32.16645268187507  10.443363217390704  23.598150482944543  71.64344087734965  12.008157950626094  -2.3000616337375743  0.10769086760151285  53.395604030138344  -32.877952570075045  24.638083872254956  120.000000
1.7639999999999993  0.000000  0.000000  0.000000  -31.462170127356618  10.132841152992397  23.058140958849872  71.2486539419589  11.74307361951686  -2.9759614369794436  0.7483174839819413  53.05593386625756  -33.12004993844339  24.42871024496645  120.000000
1.7919999999999994  0.000000  0.000000  0.000000  -30.71094546171989  9.771904917938757  22.401528063679603  70.80247894616949  11.497088349680036  -3.7137222306315754  1.4361622025978928  52.7422909369823  -33.363588893744826  24.196562256868997  120.000000
1.8199999999999994  0.000000  0.000000  0.000000  -29.92640477637461  9.366604538569426  21.637989854239592  70.30703924277506  11.270609866109718  -4.496547736930652  2.1566896210942286  52.45414607072854  -33.593073555989655  23.946988894973767  120.000000
1.8479999999999994  0.000000  0.000000  0.000000  -29.11315561690431  8.921787585725149  20.770781466523605  69.76179558991893  11.063808233775084  -5.306953450512728  2.8924103548589453  52.19167761214945  -33.78517106499101  23.686563455635397  120.000000
1.8759999999999994  0.000000  0.000000  0.000000  -28.274870654023843  8.446058734687567  19.807752898167497  69.16430462726139  10.873142469612333  -6.126969504514107  3.6253770639443563  51.95042445411332  -33.91155920824046  23.421306549265637  120.000000
1.9039999999999992  0.000000  0.000000  0.000000  -27.410311154384665  7.946186941779923  18.75230532894619  68.5118378496643  10.695484776766785  -6.938765029943439  4.337649514402974  51.72608407577344  -33.94109792247447  23.156978915406555  120.000000
1.9319999999999993  0.000000  0.000000  0.000000  -26.51988026921585  7.430569788928116  17.61456319990342  67.80197155507513  10.525097323359988  -7.725486992297345  5.013305489713572  51.50994943911005  -33.84368175919406  22.897263872667853  120.000000
1.9599999999999993  0.000000  0.000000  0.000000  -25.602888383627967  6.9057004782711  16.402452673306787  67.034028769388  10.357359438689203  -8.471943622170643  5.638952473906974  51.293418430171656  -33.59315560651554  22.64414047156424  120.000000
1.9879999999999993  0.000000  0.000000  0.000000  -24.663189139513328  6.377749809795187  15.131228667014389  66.20972115596415  10.186330105229395  -9.165596409913938  6.205325601730404  51.063773478777904  -33.1702246966733  22.397354640810327  120.000000
2.015999999999999  0.000000  0.000000  0.000000  -23.70421316644895  5.851846293015621  13.813404019895607  65.33353578135716  10.008195849760641  -9.796597300835426  6.7070859957062785  50.808508497176476  -32.56490297629204  22.156004383589423  120.000000
2.043999999999999  0.000000  0.000000  0.000000  -22.73458804005417  5.331653873754111  12.467378226427742  64.41302390791853  9.819437518799878  -10.35805034763022  7.143915543336335  50.51243458240723  -31.777789354174953  21.91961788078738  120.000000
2.071999999999999  0.000000  0.000000  0.000000  -21.76215619374935  4.820903864247088  11.107842552088307  63.45823766921242  9.618775795881383  -10.84591394174298  7.519247949848917  50.16108572545816  -30.821204265707248  21.68968716860834  120.000000
2.099999999999999  0.000000  0.000000  0.000000  -20.79976277889941  4.321647284899442  9.752495059327483  62.48163248690407  9.40592067872711  -11.258863057237289  7.840481109214993  49.73907249803857  -29.717536950754468  21.470748409715167  120.000000
2.1279999999999992  0.000000  0.000000  0.000000  -19.859275490202176  3.836593493814656  8.414792865661083  61.49690700318534  9.182003397233983  -11.597637003086227  8.117359881563209  49.232435141338215  -28.49776843020479  21.270292035380663  120.000000
